<svg id="Capa_1" enable-background="new 0 0 512 512" height="512" viewBox="0 0 512 512" width="512" xmlns="http://www.w3.org/2000/svg"><g><path d="m327.475 227.58-71.475 27.374-71.475-27.374-97.816 218.868c-1.229 2.75.948 5.809 3.949 5.548l72.617-6.307 35.469 64.269c1.511 2.738 5.454 2.718 6.938-.035l42.565-79.003c3.325-6.172 12.179-6.172 15.504 0l42.565 79.003c1.484 2.753 5.426 2.773 6.938.035l34.228-62.019c.755-1.368 2.245-2.162 3.801-2.027l70.058 6.085c3.001.261 5.178-2.798 3.949-5.548z" fill="#f6e266"/><path d="m425.291 446.448-97.816-218.868-71.475 27.374-71.475-27.374-49.749 111.315c2.86 1.187 5.373 2.443 7.312 3.854 4.134 3.008 8.465 8.866 13.051 15.067 8.704 11.772 18.571 25.114 35.124 30.489 4.572 1.484 9.51 2.237 14.674 2.236 10.78-.001 20.83-3.129 30.55-6.156 7.66-2.384 14.893-4.636 20.513-4.636s12.854 2.253 20.513 4.636c9.719 3.027 19.771 6.156 30.554 6.156 5.165 0 10.1-.753 14.67-2.236 9.96-3.234 17.418-9.272 23.765-16.24 7.426-8.153 20.814-5.894 25.314 4.174l33.184 74.25 17.343 1.506c3 .262 5.177-2.797 3.948-5.547z" fill="#ecbe6b"/><path d="m450.095 185.97c0 19.918-21.608 36.178-27.444 54.15-6.048 18.627 1.667 44.443-9.617 59.947-11.397 15.66-38.409 16.245-54.068 27.642-15.505 11.284-24.346 36.856-42.973 42.904-17.972 5.836-40.075-9.465-59.993-9.465s-42.02 15.301-59.992 9.465c-18.627-6.048-27.469-31.621-42.974-42.904-15.66-11.397-42.672-11.982-54.068-27.642-11.284-15.505-3.569-41.32-9.617-59.947-5.836-17.972-27.444-34.233-27.444-54.151s21.608-36.178 27.444-54.15c6.048-18.627-1.667-44.443 9.617-59.947 11.397-15.66 38.409-16.245 54.068-27.642 15.505-11.284 24.346-36.856 42.973-42.904 17.972-5.836 40.075 9.465 59.993 9.465s42.02-15.301 59.992-9.465c18.627 6.048 27.469 31.621 42.974 42.904 15.66 11.397 42.672 11.982 54.068 27.642 11.284 15.505 3.569 41.32 9.617 59.947 5.836 17.973 27.444 34.234 27.444 54.151z" fill="#dd636e"/><g><path d="m422.651 131.82c-6.048-18.627 1.667-44.442-9.617-59.947-11.397-15.66-38.409-16.245-54.068-27.642-15.505-11.284-24.347-36.856-42.974-42.904-8.762-2.845-18.506-.664-28.499 2.316 15.212 8.616 23.779 30.411 37.763 40.588 15.66 11.397 42.672 11.982 54.068 27.642 11.284 15.505 3.569 41.32 9.617 59.947 5.836 17.972 27.444 34.233 27.444 54.151s-21.608 36.178-27.444 54.15c-6.048 18.627 1.667 44.443-9.617 59.947-11.397 15.66-38.409 16.245-54.068 27.642-13.984 10.177-22.551 31.973-37.763 40.588 9.993 2.98 19.737 5.161 28.499 2.316 18.627-6.048 27.469-31.621 42.973-42.904 15.66-11.397 42.672-11.982 54.068-27.642 11.284-15.505 3.569-41.32 9.617-59.947 5.836-17.972 27.444-34.233 27.444-54.15.001-19.918-21.607-36.179-27.443-54.151z" fill="#c63d4f"/></g><circle cx="256" cy="185.97" fill="#f6e266" r="114.901"/><path d="m256 71.07c-4.681 0-9.295.287-13.83.831 56.936 6.831 101.071 55.293 101.071 114.07s-44.135 107.238-101.071 114.069c4.535.544 9.148.831 13.83.831 63.458 0 114.901-51.443 114.901-114.901s-51.443-114.9-114.901-114.9z" fill="#ecbe6b"/><g><g><path d="m204.857 250.041c-.917 0-1.85-.163-2.758-.51-3.999-1.524-6.008-6.002-4.484-10.002l39.327-103.255c.022-.058.045-.116.069-.174 1.561-3.819 5.236-6.289 9.361-6.293h.01c4.121 0 7.795 2.461 9.363 6.273.028.07.057.14.083.211l38.969 103.26c1.512 4.005-.51 8.477-4.514 9.988-4.003 1.512-8.477-.51-9.988-4.514l-33.937-89.924-34.258 89.946c-1.176 3.092-4.12 4.994-7.243 4.994z" fill="#fff6f4"/></g><g><path d="m275.48 224.323h-58.356c-4.281 0-7.751-3.47-7.751-7.751s3.47-7.751 7.751-7.751h58.356c4.281 0 7.75 3.47 7.75 7.751s-3.469 7.751-7.75 7.751z" fill="#fff6f4"/></g><g><g><path d="m294.644 162.396c-4.281 0-7.75-3.47-7.75-7.751v-24.993c0-4.281 3.47-7.751 7.75-7.751s7.751 3.47 7.751 7.751v24.993c0 4.282-3.47 7.751-7.751 7.751z" fill="#fff6f4"/></g><g><path d="m307.141 149.9h-24.993c-4.281 0-7.75-3.47-7.75-7.751s3.47-7.751 7.75-7.751h24.993c4.281 0 7.751 3.47 7.751 7.751-.001 4.281-3.47 7.751-7.751 7.751z" fill="#fff6f4"/></g></g></g><g><path d="m256 410.444c-4.281 0-7.751-3.47-7.751-7.75v-15.651c0-4.281 3.47-7.75 7.751-7.75s7.751 3.47 7.751 7.75v15.651c-.001 4.28-3.47 7.75-7.751 7.75z" fill="#dd636e"/></g></g></svg>